<svg width="44" height="44" viewBox="0 0 44 44" fill="none" xmlns="http://www.w3.org/2000/svg">
<path fill-rule="evenodd" clip-rule="evenodd" d="M27.4999 22C31.5516 22 34.8333 18.7184 34.8333 14.6667C34.8333 10.615 31.5516 7.33337 27.4999 7.33337C23.4483 7.33337 20.1666 10.615 20.1666 14.6667C20.1666 18.7184 23.4483 22 27.4999 22ZM27.4999 11C29.5166 11 31.1666 12.65 31.1666 14.6667C31.1666 16.6834 29.5166 18.3334 27.4999 18.3334C25.4833 18.3334 23.8333 16.6834 23.8333 14.6667C23.8333 12.65 25.4833 11 27.4999 11ZM12.8333 33C12.8333 28.1234 22.6049 25.6667 27.4999 25.6667C32.3949 25.6667 42.1666 28.1234 42.1666 33V36.6667H12.8333V33ZM16.4999 33C16.9033 31.68 22.5683 29.3334 27.4999 29.3334C32.4499 29.3334 38.1333 31.6984 38.4999 33H16.4999ZM10.9999 22V27.5H7.33325V22H1.83325V18.3334H7.33325V12.8334H10.9999V18.3334H16.4999V22H10.9999Z" fill="black"/>
</svg>
