<svg width="68" height="68" viewBox="0 0 68 68" fill="none" xmlns="http://www.w3.org/2000/svg">
<g clip-path="url(#clip0_103_170)">
<rect width="68" height="68" fill="white"/>
<path fill-rule="evenodd" clip-rule="evenodd" d="M30.7826 0.265988C29.9748 0.372887 28.9966 0.463992 28.6089 0.468526L27.9039 0.476569L27.948 1.31743L27.9921 2.15829L28.8111 2.10945L29.6302 2.0606L29.8128 3.9355C29.9132 4.96662 30.0169 5.83175 30.0431 5.85778C30.0694 5.88396 30.5017 5.8591 31.004 5.8025L31.9173 5.69955L31.8305 4.87946C31.7826 4.42846 31.7006 3.55675 31.6482 2.94226L31.5527 1.82531L32.3059 1.72221C33.0318 1.62277 33.059 1.6023 33.057 1.15745C33.0536 0.365868 32.9064 0.0362505 32.5645 0.0546763C32.3922 0.0640354 31.5903 0.159089 30.7826 0.265988ZM34.0449 0.348465C33.9991 0.539597 33.9161 1.42389 33.8603 2.31359C33.7679 3.79014 33.7865 3.98434 34.072 4.54165C35.0178 6.38774 38.5695 6.21913 39.0683 4.3046C39.219 3.72609 39.5528 0.605549 39.4725 0.525558C39.4459 0.498943 39.0198 0.435184 38.5257 0.383708C37.48 0.274908 37.5433 0.172835 37.3877 2.21678C37.263 3.85376 37.1471 4.13248 36.5909 4.13248C36.2873 4.13248 36.0779 4.02295 35.9187 3.78078C35.7166 3.47369 35.7085 3.23181 35.8558 1.86947C35.9487 1.0115 35.9904 0.27564 35.9487 0.234108C35.9069 0.192431 35.4801 0.122969 35.0005 0.0796828C34.174 0.00510207 34.1238 0.019141 34.0449 0.348465ZM25.789 1.05333C25.1062 1.29535 25.0572 1.34521 25.0911 1.76579C25.1111 2.01454 25.292 2.7311 25.4931 3.35801C25.6942 3.98508 25.8595 4.61462 25.8606 4.75706C25.8629 5.08711 25.2577 5.36643 24.7922 5.25017C24.4862 5.17369 24.3671 4.94439 23.9657 3.65955C23.7078 2.8339 23.4668 2.06923 23.43 1.96028C23.3933 1.85148 23.2716 1.79738 23.1595 1.84022C23.0474 1.88307 22.6775 2.00108 22.3376 2.10243C21.9976 2.20391 21.6892 2.3658 21.6521 2.46217C21.6149 2.55868 21.8252 3.39867 22.1194 4.32888C22.5836 5.79665 22.7307 6.08884 23.2307 6.53881C23.7625 7.01714 23.8781 7.05692 24.7247 7.054C25.799 7.05019 26.6133 6.72496 27.2577 6.04233C27.6619 5.61415 27.6969 5.49497 27.6804 4.5981C27.6618 3.58804 26.9358 0.894659 26.6639 0.827683C26.5867 0.808526 26.1929 0.91016 25.789 1.05333ZM40.7764 0.951837C40.404 2.13694 40.1978 2.84677 39.82 4.24465C39.5748 5.15073 39.3744 5.91935 39.3744 5.95254C39.3744 6.08723 41.0372 6.48294 41.1387 6.37239C41.1989 6.30673 41.3284 6.0027 41.4267 5.69692C41.5248 5.39114 41.6765 5.16462 41.7638 5.19358C41.851 5.22253 42.0425 5.5985 42.1895 6.02888C42.3364 6.4594 42.4813 6.8361 42.5115 6.86608C42.6171 6.97123 44.3865 7.37981 44.4525 7.3143C44.489 7.27788 44.3693 6.83245 44.1863 6.32442C43.9016 5.53328 43.8854 5.39041 44.0741 5.32899C44.1953 5.28951 44.5424 5.01195 44.8452 4.71202C45.3219 4.24026 45.396 4.07677 45.396 3.49665C45.396 2.96084 45.3078 2.72656 44.9561 2.32763C44.4763 1.78363 44.3191 1.71007 42.4371 1.14823C40.9883 0.715665 40.8555 0.699872 40.7764 0.951837ZM18.4492 3.83811C17.4011 4.3903 16.524 4.90066 16.5001 4.97217C16.4761 5.04368 16.6955 5.55858 16.9877 6.11633C17.2799 6.67407 17.8208 7.72259 18.1898 8.44646C18.5586 9.17033 18.8789 9.78613 18.9014 9.8148C18.9629 9.89362 20.5754 8.952 20.5745 8.83794C20.574 8.78339 20.4109 8.47571 20.2119 8.15399C20.0129 7.83227 19.8479 7.52078 19.8454 7.46185C19.8429 7.40292 20.1879 7.17961 20.6119 6.96582C21.0359 6.75187 21.5299 6.48119 21.7092 6.36434L22.0355 6.15172L21.743 5.58081C21.5821 5.26684 21.3626 5.0099 21.2552 5.0099C21.1479 5.0099 20.6119 5.24666 20.0643 5.53606C19.2735 5.95386 19.0425 6.02171 18.9428 5.86509C18.7347 5.53811 18.778 5.49277 19.7307 5.04032C21.2432 4.32201 21.2482 4.31528 20.8522 3.50381C20.6676 3.12579 20.4803 2.8203 20.4358 2.82513C20.3913 2.82995 19.4973 3.28577 18.4492 3.83811ZM42.9773 3.02825C43.8104 3.37483 43.5247 4.07428 42.6234 3.8947C42.0619 3.78298 41.9808 3.67301 42.1029 3.18867C42.2117 2.75684 42.2903 2.74236 42.9773 3.02825ZM47.3052 3.5022C46.7385 3.7024 45.9344 4.3862 45.6785 4.88545C45.3017 5.62088 45.2975 6.97035 45.6702 7.56904C46.1757 8.38109 46.6796 8.78939 47.4618 9.02073C47.8896 9.14723 48.3434 9.25032 48.4702 9.24988C49.0192 9.24798 49.8484 8.90886 50.3271 8.49033C52.3496 6.72219 50.902 3.36094 48.1402 3.41285C47.8021 3.41914 47.4264 3.45936 47.3052 3.5022ZM49.0677 5.44861C49.7967 6.17453 49.1185 7.63031 48.1419 7.43582C47.5007 7.30816 47.2465 7.0091 47.2465 6.38233C47.2465 5.39597 48.4138 4.79757 49.0677 5.44861ZM54.749 8.10778C54.5215 8.1904 54.3665 8.33327 54.4046 8.4254C54.7093 9.16346 54.7102 9.14767 54.3742 8.96853C53.9541 8.74464 53.7674 8.87918 53.7674 9.40563C53.7674 9.76683 53.8262 9.83571 54.1346 9.83571C54.5812 9.83571 54.5959 9.93222 54.1984 10.2529C53.8952 10.4973 53.8952 10.4979 54.326 10.8151L54.7572 11.1324L54.9483 10.74C55.1199 10.387 55.1449 10.3771 55.1962 10.64C55.32 11.2739 55.347 11.2953 55.817 11.1322C56.2582 10.9791 56.4036 10.67 56.1173 10.4938C55.8063 10.3023 55.9891 10.143 56.3382 10.3013C56.7725 10.4983 56.7872 10.4875 56.9197 9.87227C57.0188 9.41148 57.0071 9.39685 56.5328 9.39217L56.0439 9.3872L56.3959 9.09546L56.748 8.80357L56.3979 8.43242L56.0477 8.06142L55.802 8.36354C55.4799 8.75955 55.383 8.74493 55.383 8.30022C55.383 7.89866 55.3516 7.88915 54.749 8.10778ZM10.8705 9.0823L10.2336 9.64487L10.4674 10.435C10.5961 10.8695 11.0063 12.0436 11.3791 13.0443C11.7518 14.0448 12.0569 14.9179 12.0569 14.9843C12.0569 15.0508 11.6768 14.8385 11.2124 14.5126C10.748 14.1868 9.97221 13.6428 9.48872 13.3039C9.00508 12.9647 8.43068 12.5754 8.21214 12.4387L7.81471 12.1901L7.27409 12.9393C6.81175 13.5801 6.76549 13.7114 6.95465 13.846C7.07626 13.9327 7.49748 14.2338 7.89064 14.5153L8.60545 15.0272L7.43051 15.064C5.79175 15.1153 5.66676 15.1626 5.13672 15.9297L4.6663 16.6105L5.04492 16.9156C5.25318 17.0834 5.99502 17.6155 6.69337 18.0981C7.39159 18.5807 8.19921 19.1566 8.48796 19.3777C8.7767 19.5988 9.0653 19.7798 9.12933 19.7798C9.26386 19.7798 10.1476 18.5126 10.1476 18.3195C10.1476 18.2482 9.74016 17.906 9.24227 17.5591C8.59311 17.1066 8.41658 16.92 8.61808 16.8993C8.77273 16.8832 9.46096 16.8291 10.1476 16.7789L11.3959 16.6875L11.9834 15.8782C12.3065 15.4331 12.8232 14.8419 13.1315 14.5643C13.5957 14.1463 13.6771 13.9918 13.6047 13.6639C13.5316 13.3324 13.6256 13.1623 14.1817 12.6187C14.6997 12.1126 14.8851 12.0083 15.023 12.1457C15.3332 12.4545 15.6512 12.3383 16.3025 11.6773C16.8633 11.1084 16.991 10.7131 16.6142 10.7131C16.5454 10.7131 15.971 10.4756 15.3377 10.1855C14.7046 9.89523 13.856 9.50726 13.4521 9.32315C12.6844 8.9735 11.6067 8.51958 11.5437 8.51958C11.5236 8.51958 11.2206 8.77271 10.8705 9.0823ZM13.3787 11.4526C13.3787 11.658 12.9439 11.803 12.7978 11.6466C12.7316 11.5755 12.631 11.3646 12.5741 11.1779C12.4719 10.8414 12.4751 10.8404 12.9248 11.0718C13.1744 11.2004 13.3787 11.3718 13.3787 11.4526ZM31.0763 12.6203C28.9795 12.8948 26.1141 13.7955 24.0719 14.822C21.7267 16.0008 19.2985 17.944 17.4286 20.1388C11.2862 27.3483 10.6665 37.8924 15.9191 45.8209C18.9469 50.3912 23.2823 53.452 28.7634 54.8892C30.3133 55.2954 30.7726 55.3493 33.2793 55.4177C35.4782 55.4776 36.3656 55.4428 37.4651 55.2532C41.976 54.4749 45.7456 52.5729 49.0113 49.4274C51.9546 46.5923 53.8638 43.339 54.9771 39.2616C55.4417 37.5596 55.4451 37.523 55.4479 34.0379C55.4506 30.8128 55.4231 30.4275 55.1091 29.2852C54.9212 28.6016 54.7097 27.806 54.6393 27.5175C54.3192 26.2078 53.0739 23.6604 51.9395 21.9952C48.421 16.8294 42.99 13.4611 36.8303 12.624C35.5357 12.4482 32.4074 12.4462 31.0763 12.6203ZM33.2059 19.4874V24.8981H28.9601H24.7141L25.0155 23.911C26.4903 19.0791 29.2723 15.3133 32.081 14.3468C32.4977 14.2035 32.9214 14.084 33.0223 14.0814C33.1659 14.0776 33.2059 15.2537 33.2059 19.4874ZM35.7867 14.3217C38.0336 15.0827 40.0538 17.2647 41.7197 20.7304C42.2894 21.9155 43.1929 24.4173 43.1929 24.8096C43.1929 24.8583 41.3093 24.8981 39.0072 24.8981H34.8214V19.4874C34.8214 16.5115 34.8758 14.0766 34.9422 14.0766C35.0085 14.0766 35.3885 14.1868 35.7867 14.3217ZM61.4707 14.502C61.394 14.5751 60.406 15.1727 59.2754 15.83C58.1449 16.4872 57.1967 17.0478 57.1683 17.0761C57.0846 17.1594 57.9422 18.6097 58.0754 18.6098C58.1425 18.6099 58.5969 18.3768 59.0851 18.092C59.5731 17.8071 60.008 17.6094 60.0515 17.6525C60.0948 17.6957 59.9471 18.0662 59.7231 18.476C59.4957 18.8919 59.3716 19.2763 59.4423 19.3464C59.5119 19.4154 59.9902 19.4919 60.5056 19.5162L61.4423 19.5605L60.3958 20.1454C59.8202 20.4671 59.349 20.7973 59.3487 20.8792C59.3486 20.9611 59.5065 21.2598 59.6997 21.5427C59.8929 21.8258 60.2307 22.5614 60.4502 23.1772C60.7977 24.1522 60.8989 24.3026 61.2328 24.3415C61.5576 24.3794 61.6537 24.5091 61.8624 25.1906C62.098 25.9601 62.0968 26.0078 61.8348 26.2919C61.5776 26.5705 61.5747 26.6335 61.7859 27.3156C61.9097 27.7152 62.0407 28.3383 62.0771 28.7003C62.2466 30.3836 62.2279 30.3507 62.9558 30.242C63.9713 30.0904 64.0262 30.2703 63.1948 31.0237L62.4506 31.6981L62.535 33.486C62.6095 35.0597 62.6524 35.2843 62.8932 35.3603C63.1867 35.453 63.2325 35.817 63.0724 36.7819C63.004 37.1944 62.8965 37.3535 62.6437 37.4167C62.3501 37.4901 62.2931 37.6235 62.2049 38.4449C62.1489 38.964 62.1423 39.4276 62.1899 39.4751C62.2746 39.5594 62.6371 39.4549 66.1044 38.3475C67.9599 37.7548 67.9534 37.7614 67.9963 36.4191C68.0137 35.8757 68.0132 35.8754 66.6551 35.1983C65.3586 34.5519 63.4697 33.5444 63.314 33.4161C63.2736 33.3829 63.4565 33.1637 63.7201 32.929C64.1949 32.5067 64.6357 32.3698 64.6357 32.6449C64.6357 32.8744 65.4609 33.2336 65.9869 33.233C66.6714 33.2323 67.4027 32.7398 67.6738 32.097C67.9019 31.556 67.8822 30.0149 67.6278 28.5175L67.5346 27.9691L66.7828 27.9755C66.3693 27.979 65.2379 28.0712 64.2685 28.1803C63.2992 28.2893 62.488 28.3616 62.4659 28.341C62.4437 28.3202 63.388 27.4918 64.5643 26.5C66.9163 24.5169 66.8055 24.7092 66.3821 23.3439C66.2144 22.803 66.2263 22.8056 62.8191 22.5414C60.1195 22.332 60.1038 22.4949 62.9812 20.8542C65.1582 19.613 65.1183 19.6805 64.3546 18.5368C63.9742 17.9674 63.9389 17.9506 63.0147 17.9022C62.4926 17.875 62.0352 17.8229 61.9982 17.7865C61.9612 17.7502 62.1473 17.3286 62.4117 16.8498L62.8924 15.9793L62.4055 15.1784C61.9211 14.3815 61.737 14.2483 61.4707 14.502ZM27.4369 15.9411C25.6564 18.07 24.3474 20.6284 23.4521 23.7282L23.1353 24.825L19.6521 24.8642C17.7365 24.8858 16.1692 24.8512 16.1692 24.7873C16.1692 24.5792 17.5129 22.5071 18.2424 21.5904C19.9459 19.4496 22.7487 17.1991 25.2016 16.0024C26.1271 15.5508 27.9481 14.8465 28.2617 14.8186C28.3293 14.8126 27.9581 15.3177 27.4369 15.9411ZM40.563 15.0799C42.2044 15.6424 43.66 16.4078 45.9965 17.9371C47.61 18.9932 50.5954 22.4361 51.6205 24.4228L51.8656 24.8981H48.3564H44.8473L44.5977 23.9841C43.6885 20.6527 41.9868 17.426 40.0864 15.4293C39.4175 14.7268 39.4541 14.6999 40.563 15.0799ZM4.60535 18.7468C3.4655 19.0294 2.36003 20.5106 2.36678 21.7461C2.38044 24.2605 5.51828 25.5639 7.23062 23.7665C7.81971 23.1481 8.23902 22.2018 8.23681 21.4952C8.23446 20.7274 7.60014 19.5542 6.96435 19.1417C6.33957 18.7363 5.3297 18.5672 4.60535 18.7468ZM5.68321 20.663C6.49701 20.9711 6.73846 21.8646 6.15437 22.4064C5.77207 22.761 5.29768 22.786 4.7083 22.4826C3.95839 22.0965 3.98365 20.9684 4.74898 20.6622C5.18827 20.4865 5.21691 20.4865 5.68321 20.663ZM0.902946 26.1522C0.636674 27.2584 0.41035 28.3606 0.399922 28.6017C0.382298 29.0074 0.433702 29.0539 1.08697 29.2228C1.77755 29.4015 1.79635 29.3975 1.93146 29.0433C2.00754 28.8442 2.06981 28.5518 2.06981 28.3938C2.06981 28.2355 2.17923 28.0644 2.31288 28.0132C2.51174 27.9374 4.29737 28.2693 5.67734 28.6388C5.94067 28.7095 6.00295 28.6219 6.15466 27.9678C6.25057 27.5541 6.32899 27.1276 6.32899 27.0202C6.32899 26.839 3.55553 26.068 2.90403 26.068C2.61631 26.068 2.60133 25.9088 2.81679 25.1365C2.90359 24.8253 2.91974 24.518 2.85262 24.4538C2.78565 24.3898 2.42832 24.2931 2.0588 24.2393L1.38688 24.1413L0.902946 26.1522ZM63.7361 24.8444C63.3957 25.2052 63.1742 25.1077 63.1692 24.5944C63.1676 24.4201 63.2767 24.3799 63.6163 24.4294L64.0657 24.4951L63.7361 24.8444ZM22.6189 27.0551C22.3613 28.1554 22.0439 32.0109 22.0439 34.0395C22.0439 35.7929 22.361 39.9456 22.5519 40.6917C22.5828 40.8123 22.6508 41.059 22.703 41.2401L22.7981 41.5691H19.0742H15.3504L14.8827 40.1433C13.6693 36.4444 13.658 31.6161 14.854 27.8985L15.3018 26.5067H19.0246H22.7472L22.6189 27.0551ZM33.2059 34.0401V41.5733L28.7656 41.5347L24.3252 41.496L24.0723 40.0336C23.612 37.3719 23.4468 34.2665 23.6321 31.7611C23.7786 29.7821 24.1241 27.23 24.3187 26.6895C24.3694 26.5488 25.3997 26.5067 28.7953 26.5067H33.2059V34.0401ZM43.7726 27.2745C44.552 31.0168 44.5769 36.5753 43.8309 40.3626L43.5933 41.5691H39.2074H34.8214V34.0379V26.5067H39.2171H43.6127L43.7726 27.2745ZM53.138 28.0068C54.3454 31.837 54.3389 36.2314 53.1203 40.0336L52.6515 41.496L48.9337 41.535L45.2159 41.5742L45.2986 41.2425C45.6284 39.9192 45.8978 36.6469 45.8978 33.9648C45.8978 31.2598 45.6296 28.0419 45.3037 26.8358L45.2149 26.5067L48.9403 26.5079L52.6659 26.5091L53.138 28.0068ZM4.41971 29.7302C3.81387 29.9554 2.5912 30.3951 1.70264 30.7074L0.0870929 31.2749L0.04362 32.2589L0 33.2428L0.530635 33.4636C0.822462 33.585 1.90943 34.1006 2.94603 34.6095L4.83079 35.5346L4.30779 36.0552L3.78494 36.576L3.33127 36.2344C2.54288 35.6407 1.54344 35.6902 0.831862 36.3584C0.334125 36.8259 0.307395 36.8997 0.307395 37.8102C0.307395 38.715 0.564415 40.995 0.679413 41.1105C0.708639 41.1397 1.83864 41.0257 3.19071 40.8572C4.54264 40.6886 5.67176 40.5735 5.69981 40.6014C5.72801 40.6294 5.20354 41.1367 4.53456 41.7286C3.86557 42.3206 2.92752 43.178 2.45006 43.6341L1.58192 44.4632L1.91178 45.3415L2.24165 46.2198L5.02554 46.3263C7.89153 46.4358 8.13562 46.5062 7.2641 46.9715C6.93497 47.1473 3.91624 49.0133 3.56552 49.2578C3.54011 49.2755 3.7281 49.6586 3.98351 50.1091L4.44776 50.9282H5.60758H6.7674L6.25321 51.8932L5.73902 52.8583L6.04128 53.3922C6.20753 53.6858 6.45604 54.0697 6.59336 54.2452L6.84303 54.5644L7.57737 54.0868C7.98126 53.8241 9.02168 53.1654 9.88937 52.6227C11.632 51.5329 11.5795 51.6487 10.8218 50.5626C10.6535 50.3213 10.5008 50.0983 10.4826 50.067C10.4642 50.0356 10.2206 50.1837 9.94107 50.3961C9.66158 50.6083 9.38899 50.782 9.33553 50.782C9.28207 50.782 9.04635 50.9181 8.81166 51.0844C8.29262 51.4525 8.28924 51.4172 8.75232 50.4614C9.29045 49.3509 9.2737 49.3202 8.12813 49.3158L7.13677 49.3122L8.12167 48.6943C8.66346 48.3546 9.1095 48.0282 9.11303 47.9691C9.11655 47.91 8.90462 47.5187 8.64217 47.0995C8.37971 46.6803 8.02708 45.9389 7.85877 45.4521C7.59705 44.6953 7.49278 44.5563 7.14044 44.4938C6.80044 44.4336 6.6759 44.2832 6.42931 43.6366L6.13028 42.8523L6.46206 42.6031L6.79383 42.3539L6.41462 41.4245C6.20592 40.9132 6.03438 40.2266 6.0332 39.8988C6.03217 39.5708 5.98929 39.1464 5.93803 38.9558C5.8505 38.6302 5.79748 38.6147 5.05888 38.7011C4.06678 38.8172 4.05386 38.6657 4.98486 37.8323L5.69687 37.1949L5.58114 36.4938C5.5174 36.1082 5.4613 35.3201 5.4566 34.7423C5.44896 33.8247 5.41063 33.6804 5.15405 33.5992C4.90143 33.5193 4.86031 33.3779 4.86031 32.5891C4.86031 31.7674 4.89644 31.6556 5.20663 31.5149C5.42384 31.4163 5.58804 31.1828 5.64723 30.8881C5.77589 30.2474 5.76619 29.2813 5.63137 29.3029C5.57071 29.3127 5.02554 29.505 4.41971 29.7302ZM66.1778 30.6034C66.1778 31.1722 66.1339 31.2655 65.8476 31.3061C65.6036 31.3406 65.479 31.2522 65.3703 30.9675C65.1524 30.3969 65.191 30.0464 65.4802 29.9695C66.0553 29.8163 66.1778 29.9278 66.1778 30.6034ZM3.39163 32.4293C3.39163 32.8573 3.41337 32.8513 2.80019 32.5947L2.32184 32.3943L2.74658 32.2407C3.36167 32.0179 3.39163 32.0267 3.39163 32.4293ZM65.5169 36.6291C65.5169 36.6919 65.4344 36.7442 65.3333 36.7453C65.2324 36.7463 65.0011 36.787 64.8193 36.8354C64.5593 36.9049 64.4888 36.8628 64.4888 36.6384C64.4888 36.4817 64.5257 36.3166 64.5708 36.2717C64.6783 36.1646 65.5169 36.4814 65.5169 36.6291ZM2.63849 37.8174C2.72867 37.9256 2.84352 38.2187 2.8936 38.4684C2.97394 38.868 2.93957 38.9342 2.60911 39.0167C2.09419 39.1454 1.92295 39.0028 1.92295 38.4456C1.92295 37.7565 2.30671 37.4195 2.63849 37.8174ZM65.8184 40.2164C65.7343 40.5181 65.6651 40.8471 65.6646 40.9476C65.6635 41.1817 65.7986 41.2003 63.804 40.6917C62.8576 40.4504 62.0316 40.253 61.9684 40.253C61.7903 40.253 61.3592 41.8749 61.5001 42.015C61.5686 42.0833 62.3849 42.3247 63.3139 42.5515C65.1537 43.0007 65.0982 42.9481 64.8548 44.0155C64.7381 44.5273 64.8575 44.6222 65.903 44.8484C66.3427 44.9436 66.367 44.9243 66.4661 44.3982C66.5231 44.0958 66.7954 43.0281 67.0714 42.0258C67.3473 41.0233 67.5731 40.1539 67.5731 40.0938C67.5731 40.0096 66.3358 39.668 66.0306 39.668C65.998 39.668 65.9024 39.9149 65.8184 40.2164ZM23.3734 43.982C24.2491 47.2473 25.9759 50.522 27.9035 52.5734C28.187 52.8751 28.3509 53.1218 28.2679 53.1218C27.885 53.1218 25.9233 52.3571 24.884 51.8027C22.1401 50.339 20.4636 49.0054 18.6373 46.8336C17.5433 45.5325 16.1692 43.4928 16.1692 43.1698C16.1692 43.0787 17.443 43.0405 19.6536 43.0654L23.1381 43.1046L23.3734 43.982ZM33.2059 48.4422C33.2059 52.8692 33.17 53.853 33.0089 53.853C32.5437 53.853 31.4577 53.4236 30.7091 52.9438C28.5505 51.5601 26.364 48.2423 25.1409 44.4938C24.8915 43.7297 24.6875 43.088 24.6875 43.068C24.6875 43.048 26.6042 43.0314 28.9467 43.0314H33.2059V48.4422ZM43.1929 43.2233C43.1929 43.5 42.4166 45.7203 41.9306 46.8336C40.4397 50.2487 38.1332 52.8313 35.8616 53.6294C34.7367 54.0245 34.8214 54.4473 34.8214 48.4422V43.0314H39.0072C42.364 43.0314 43.1929 43.0695 43.1929 43.2233ZM51.753 43.2874C51.1176 44.9814 48.2421 48.3017 45.8462 50.1077C44.3379 51.2447 40.555 53.1218 39.7719 53.1218C39.7023 53.1218 39.9395 52.7762 40.299 52.354C42.1951 50.1274 43.7688 47.0622 44.5785 44.0185L44.8411 43.0314H48.3451C51.6207 43.0314 51.8427 43.0481 51.753 43.2874ZM5.15184 44.311C5.15317 44.4194 4.96415 44.4938 4.68789 44.4938H4.22158L4.56804 44.1266C4.9123 43.7619 5.14597 43.8356 5.15184 44.311ZM60.912 44.682C59.8396 45.3439 59.1632 46.8308 59.4151 47.9728C59.5781 48.7119 60.259 49.6002 60.8989 49.9087C61.5949 50.2441 62.675 50.2839 63.3553 49.9993C64.3721 49.5739 65.2283 48.2256 65.2199 47.0635C65.2154 46.4222 64.7585 45.5267 64.1341 44.9352C63.637 44.464 63.5171 44.4223 62.5374 44.3793C61.6277 44.3394 61.3981 44.3821 60.912 44.682ZM63.1002 46.6077C63.5368 47.0424 63.564 47.6082 63.167 48.0035C62.5183 48.6494 61.1109 48.1417 61.1109 47.2616C61.1109 46.2998 62.3741 45.8845 63.1002 46.6077ZM57.8239 49.6732C57.5315 50.0286 57.2923 50.3763 57.2923 50.4461C57.2923 50.5157 57.4741 50.6855 57.6962 50.8232C57.9182 50.9611 58.3289 51.2714 58.6085 51.5129L59.117 51.9519L57.5804 51.9529L56.0439 51.9539L55.6767 52.4938C55.4748 52.7908 54.9274 53.397 54.4604 53.8408C53.75 54.5161 53.6247 54.7087 53.6936 55.0209C53.7592 55.3187 53.6604 55.5063 53.2041 55.95C52.6921 56.4476 52.5777 56.4957 52.1103 56.4084C51.6387 56.3203 51.5224 56.3714 50.9037 56.9394L50.2188 57.5679L52.8068 58.8545C54.2302 59.5622 55.4748 60.141 55.5725 60.141C55.6703 60.1408 56.0389 59.8855 56.3918 59.5734L57.0335 59.0063L56.2006 56.4892C55.7424 55.1047 55.3883 53.9104 55.4134 53.8351C55.4387 53.7598 55.8813 54.0126 56.3971 54.3971C56.9129 54.7814 57.5138 55.2276 57.7323 55.3884C57.9508 55.5493 58.4136 55.8947 58.7608 56.156C59.4771 56.6951 59.5799 56.663 60.1829 55.7119L60.5369 55.1537L60.1997 54.8716C60.0142 54.7166 59.6482 54.4404 59.3862 54.2579C59.1242 54.0754 58.9094 53.8768 58.9089 53.8164C58.9083 53.756 59.5521 53.7026 60.3398 53.6977L61.7718 53.6886L62.2491 53.037C62.5117 52.6784 62.7223 52.3371 62.7172 52.2781C62.7122 52.2193 62.2063 51.8093 61.5933 51.3669C60.9801 50.9246 60.0425 50.2175 59.5097 49.7958C58.9767 49.3739 58.4991 49.0285 58.4481 49.028C58.3973 49.0276 58.1165 49.3179 57.8239 49.6732ZM11.2586 56.2409C11.0373 56.402 11.0208 56.4896 11.1623 56.7527C11.355 57.1114 11.1984 57.1709 10.7253 56.9188C10.5131 56.8056 10.4409 56.8148 10.4392 56.9554C10.4382 57.0588 10.3974 57.2913 10.3488 57.4723C10.2699 57.7652 10.3144 57.8018 10.7546 57.806L11.2491 57.8106L10.8368 58.1168L10.4246 58.4228L10.7522 58.7702C11.1729 59.2159 11.2911 59.2073 11.5029 58.7153L11.676 58.3132L11.7296 58.7978C11.7806 59.2592 11.8057 59.2777 12.2504 59.183C12.8585 59.0533 12.889 59.0147 12.6653 58.6578C12.4196 58.2662 12.5525 58.1514 13.0109 58.3594C13.3478 58.5122 13.3806 58.4958 13.4007 58.1639C13.4129 57.9644 13.4293 57.7192 13.4374 57.6185C13.4459 57.513 13.3124 57.4505 13.1217 57.4706C12.7082 57.5141 12.6966 57.3455 13.0961 57.0972C13.3465 56.9415 13.3684 56.8684 13.2183 56.6883C13.1178 56.5678 12.9172 56.4061 12.7724 56.3289C12.5612 56.2164 12.4654 56.2686 12.2888 56.5928L12.0686 56.997L12.0627 56.5218C12.0563 55.9956 11.7449 55.8868 11.2586 56.2409ZM54.6071 57.2791L54.7616 57.7806L54.2658 57.5451C53.7987 57.3233 53.784 57.2943 54.0118 57.0437C54.3484 56.6733 54.4303 56.7056 54.6071 57.2791ZM17.5631 58.5128C15.9005 59.2649 15.3496 61.3192 16.41 62.8134C17.8797 64.8847 21.3078 64.2613 21.7005 61.8515C21.938 60.3944 21.2994 59.2257 19.9153 58.5839C19.0337 58.1751 18.3552 58.1545 17.5631 58.5128ZM47.3787 59.0689C46.9748 59.2761 46.6252 59.4622 46.6019 59.4823C46.5784 59.5025 46.7261 59.8314 46.93 60.2132C47.134 60.595 47.2597 60.9735 47.2096 61.0544C47.1595 61.1351 46.6813 61.3974 46.147 61.6376C45.6127 61.8775 45.1574 62.0903 45.1353 62.1105C45.048 62.1895 45.6964 63.5259 45.7998 63.4801C45.8605 63.4534 46.3643 63.2103 46.9194 62.9401C47.7301 62.5455 47.9538 62.4879 48.0554 62.6476C48.2641 62.9755 48.2315 63.0037 47.0115 63.5512C46.3653 63.8412 45.8366 64.1055 45.8366 64.1385C45.8366 64.3633 46.4663 65.5519 46.5854 65.5519C46.6665 65.5519 47.1757 65.3289 47.7168 65.0561C48.2578 64.7836 49.1423 64.3489 49.6823 64.0902C50.7674 63.5705 50.7427 63.6644 50.1239 62.4078C49.9655 62.0861 49.497 61.1155 49.0826 60.2508C48.6683 59.3861 48.2807 58.6818 48.2213 58.6856C48.1616 58.6893 47.7826 58.8619 47.3787 59.0689ZM19.6573 60.3965C19.7583 60.5281 19.8409 60.8817 19.8409 61.1822C19.8409 62.1103 18.8645 62.6324 18.1112 62.107C17.7499 61.8552 17.6644 61.077 17.9411 60.562C18.254 59.98 19.2631 59.8827 19.6573 60.3965ZM22.6314 60.2746C22.6314 60.3369 22.7636 60.7704 22.9251 61.2379C23.0867 61.7054 23.2188 62.1313 23.2188 62.1842C23.2188 62.2371 22.9871 62.3905 22.7038 62.5251C21.1279 63.2734 21.3272 65.3183 23.046 66.0346C23.7793 66.3402 26.0264 67.0482 26.075 66.9888C26.1114 66.9443 26.7725 64.9492 27.4679 62.7845C27.6339 62.2678 27.7537 61.8332 27.734 61.8186C27.6296 61.7411 26.2249 61.311 26.0757 61.311C25.9794 61.311 25.8174 61.6071 25.7156 61.9691C25.6138 62.331 25.4505 62.6271 25.3528 62.6271C25.255 62.6271 25.0876 62.2643 24.9808 61.8209C24.7664 60.9312 24.6985 60.8498 23.9532 60.588C22.9683 60.2422 22.6314 60.1623 22.6314 60.2746ZM41.2828 61.2938C40.1279 61.6675 39.4237 62.3543 39.2793 63.2472C39.2093 63.68 39.7693 66.2964 40.1061 67.11C40.2343 67.4198 40.2516 67.4212 41.1272 67.2017C41.6172 67.0787 42.018 66.937 42.0178 66.8866C42.0178 66.8361 41.8226 66.0712 41.5843 65.1866C41.1923 63.7324 41.1716 63.5467 41.3675 63.2489C41.5132 63.0274 41.7297 62.9196 42.0288 62.9196C42.5471 62.9196 42.6554 63.1246 43.2063 65.1497C43.5909 66.5632 43.5843 66.5586 44.733 66.2528C45.1171 66.1504 45.396 65.9904 45.396 65.8724C45.396 65.6132 44.5537 62.7259 44.345 62.2697C44.0647 61.6573 43.3477 61.2553 42.4609 61.213C42.0153 61.192 41.4851 61.2282 41.2828 61.2938ZM29.0153 62.3249C28.6897 62.4907 28.3053 62.8249 28.1613 63.0676C27.8459 63.599 27.3494 67.0928 27.5601 67.2971C27.6362 67.3708 28.0618 67.4499 28.5061 67.473L29.3139 67.5148L29.508 65.9849C29.7656 63.9563 29.837 63.797 30.4888 63.797C31.2658 63.797 31.3564 64.1237 31.1096 66.0368C30.9921 66.9476 30.9619 67.6472 31.038 67.694C31.1104 67.7386 31.5514 67.8095 32.0182 67.8516L32.8665 67.9282L33.0363 66.4423C33.2836 64.2764 33.2585 63.7716 32.875 63.2051C32.3868 62.484 31.7194 62.1574 30.5871 62.0856C29.8025 62.0359 29.4898 62.0836 29.0153 62.3249ZM35.7909 62.2962L35.2184 62.3549L35.317 64.3112L35.4155 66.2676L34.6412 66.3119L33.8668 66.3562L33.9189 67.0874C33.9476 67.4895 33.9921 67.8536 34.0179 67.8965C34.0438 67.9393 35.0779 67.8936 36.3158 67.7947C37.5538 67.6959 38.6823 67.6115 38.8236 67.6071C39.1025 67.5985 39.1502 67.2512 38.9853 66.43L38.89 65.9555L38.1249 66.045L37.3598 66.1345L37.2656 65.2367C37.2138 64.743 37.1713 63.9592 37.1713 63.4951C37.1713 63.0309 37.1312 62.547 37.0822 62.4198C36.9939 62.1908 36.9045 62.1822 35.7909 62.2962ZM24.8175 63.9298C24.9554 64.0167 24.9886 64.1866 24.9206 64.4563C24.8306 64.8137 24.7724 64.845 24.3519 64.7612C23.769 64.6451 23.4726 64.3633 23.5963 64.0424C23.6991 63.7758 24.4618 63.7055 24.8175 63.9298Z" fill="#E600FF"/>
</g>
<defs>
<clipPath id="clip0_103_170">
<rect width="68" height="68" fill="white"/>
</clipPath>
</defs>
</svg>
