<svg width="31" height="31" viewBox="0 0 31 31" fill="none" xmlns="http://www.w3.org/2000/svg">
<g clip-path="url(#clip0_103_252)">
<path fill-rule="evenodd" clip-rule="evenodd" d="M20.6996 18.9113H22.0044L30.2451 27.1685L27.7845 29.6291L19.5273 21.3884V20.0838L19.0814 19.6214C17.1986 21.2398 14.7545 22.2141 12.0957 22.2141C6.1671 22.2141 1.36133 17.4084 1.36133 11.4798C1.36133 5.55108 6.1671 0.745361 12.0957 0.745361C18.0243 0.745361 22.8302 5.55108 22.8302 11.4798C22.8302 14.1386 21.8558 16.5827 20.2374 18.4654L20.6996 18.9113ZM4.66422 11.4798C4.66422 15.5919 7.98364 18.9113 12.0957 18.9113C16.2078 18.9113 19.5273 15.5919 19.5273 11.4798C19.5273 7.36767 16.2078 4.04824 12.0957 4.04824C7.98364 4.04824 4.66422 7.36767 4.66422 11.4798Z" fill="black" fill-opacity="0.2"/>
</g>
<defs>
<clipPath id="clip0_103_252">
<rect width="29.726" height="29.726" fill="white" transform="translate(0.94043 0.324219)"/>
</clipPath>
</defs>
</svg>
