<svg width="37" height="37" viewBox="0 0 37 37" fill="none" xmlns="http://www.w3.org/2000/svg">
<rect width="37" height="37" fill="white" fill-opacity="0.5"/>
<path fill-rule="evenodd" clip-rule="evenodd" d="M7.23025 10.0594L3.09859 5.92769L5.27234 3.73853L32.6061 31.0877L30.4323 33.2615L25.1598 27.989C23.094 28.806 20.8432 29.2531 18.4998 29.2531C10.7915 29.2531 4.20859 24.4585 1.5415 17.6906C2.72859 14.6535 4.71734 12.0327 7.23025 10.0594ZM18.4998 9.21144C24.3428 9.21144 29.5536 12.4952 32.0973 17.6906C31.1878 19.5715 29.9082 21.1902 28.3819 22.5006L30.5557 24.6744C32.6986 22.7781 34.3944 20.404 35.4582 17.6906C32.7911 10.9227 26.2082 6.12811 18.4998 6.12811C16.5419 6.12811 14.6611 6.43644 12.8882 7.00686L15.4319 9.55061C16.434 9.35019 17.4515 9.21144 18.4998 9.21144ZM16.8503 10.9689L20.0415 14.1602C20.9203 14.5456 21.6294 15.2548 22.0148 16.1335L25.2061 19.3248C25.3294 18.8006 25.4219 18.2456 25.4219 17.6752C25.4373 13.8519 22.3232 10.7531 18.4998 10.7531C17.9294 10.7531 17.3898 10.8302 16.8503 10.9689ZM14.6611 17.4902L18.6848 21.514C18.6232 21.5294 18.5615 21.5448 18.4998 21.5448C16.3723 21.5448 14.6457 19.8181 14.6457 17.6906C14.6457 17.6521 14.6495 17.6212 14.6534 17.5904C14.6572 17.5596 14.6611 17.5287 14.6611 17.4902ZM12.1173 14.9464L9.41942 12.2485C7.554 13.6669 5.9815 15.486 4.90234 17.6906C7.44609 22.886 12.6569 26.1698 18.4998 26.1698C19.9644 26.1698 21.3828 25.954 22.7394 25.584L21.2286 24.0731C20.3961 24.4277 19.4711 24.6281 18.4998 24.6281C14.6765 24.6281 11.5623 21.514 11.5623 17.6906C11.5623 16.7194 11.7628 15.7944 12.1173 14.9464Z" fill="black" fill-opacity="0.2"/>
</svg>
