<svg width="44" height="44" viewBox="0 0 44 44" fill="none" xmlns="http://www.w3.org/2000/svg">
<path fill-rule="evenodd" clip-rule="evenodd" d="M20.1209 3.7583V7.46163C17.4443 7.79163 15.006 8.85497 12.971 10.4316L10.3676 7.80997C13.081 5.59163 16.436 4.12497 20.1209 3.7583ZM23.8793 17.9483L18.2876 13.75V30.25L23.8793 26.0516L29.2876 22L23.8793 17.9483ZM10.386 13.0166L7.76431 10.4133C5.54598 13.1266 4.07931 16.4816 3.71265 20.1666H7.41598C7.74598 17.49 8.80931 15.0516 10.386 13.0166ZM3.71265 23.8333H7.41598C7.74598 26.51 8.80931 28.9483 10.386 30.965L7.76431 33.5866C5.54598 30.8733 4.07931 27.5183 3.71265 23.8333ZM10.3676 36.19C13.081 38.4083 16.4543 39.875 20.1209 40.2416V36.5383C17.4443 36.2083 15.006 35.145 12.971 33.5683L10.3676 36.19ZM23.8793 40.2416C33.1009 39.27 40.2876 31.46 40.2876 22C40.2876 12.54 33.1009 4.72997 23.8793 3.7583V7.46163C31.0659 8.41497 36.6209 14.575 36.6209 22C36.6209 29.425 31.0659 35.585 23.8793 36.5383V40.2416Z" fill="black"/>
</svg>
